<svg width="46" height="26" viewBox="0 0 46 26" fill="none" xmlns="http://www.w3.org/2000/svg">
<path d="M1.34041 5.5794V8.99991H0.188232V0.262596H3.41072C4.36686 0.262596 5.11498 0.506633 5.65506 0.994707C6.19914 1.48278 6.47118 2.12888 6.47118 2.933C6.47118 3.78113 6.20514 4.43523 5.67306 4.8953C5.14498 5.35136 4.38687 5.5794 3.39872 5.5794H1.34041ZM1.34041 4.63726H3.41072C4.02681 4.63726 4.49888 4.49323 4.82693 4.20519C5.15498 3.91315 5.31901 3.49308 5.31901 2.945C5.31901 2.42492 5.15498 2.00886 4.82693 1.69681C4.49888 1.38477 4.04881 1.22274 3.47673 1.21074H1.34041V4.63726Z" fill="white"/>
<path d="M10.3778 9.11993C9.49764 9.11993 8.78153 8.83189 8.22945 8.2558C7.67736 7.67571 7.40132 6.9016 7.40132 5.93345V5.72942C7.40132 5.08532 7.52334 4.51124 7.76738 4.00716C8.01541 3.49908 8.35947 3.10302 8.79953 2.81898C9.2436 2.53094 9.72367 2.38692 10.2397 2.38692C11.0839 2.38692 11.74 2.66496 12.208 3.22104C12.6761 3.77713 12.9102 4.57325 12.9102 5.6094V6.07147H8.51149C8.52749 6.71157 8.71352 7.22965 9.06957 7.62571C9.42963 8.01777 9.8857 8.2138 10.4378 8.2138C10.8298 8.2138 11.1619 8.13378 11.4339 7.97376C11.706 7.81374 11.944 7.6017 12.148 7.33766L12.8261 7.86574C12.2821 8.70187 11.4659 9.11993 10.3778 9.11993ZM10.2397 3.29905C9.79168 3.29905 9.41562 3.46308 9.11158 3.79113C8.80753 4.11518 8.6195 4.57125 8.54749 5.15934H11.8V5.07532C11.768 4.51124 11.616 4.07517 11.3439 3.76712C11.0719 3.45508 10.7038 3.29905 10.2397 3.29905Z" fill="white"/>
<path d="M15.7066 0.934698V2.50693H16.9188V3.36506H15.7066V7.39167C15.7066 7.65171 15.7606 7.84774 15.8686 7.97976C15.9766 8.10778 16.1606 8.17179 16.4207 8.17179C16.5487 8.17179 16.7247 8.14779 16.9488 8.09978V8.99991C16.6567 9.07993 16.3727 9.11993 16.0966 9.11993C15.6006 9.11993 15.2265 8.96991 14.9745 8.66986C14.7224 8.36982 14.5964 7.94375 14.5964 7.39167V3.36506H13.4142V2.50693H14.5964V0.934698H15.7066Z" fill="white"/>
<path d="M20.9694 5.10533C19.9812 4.82128 19.2611 4.47323 18.809 4.06117C18.361 3.64511 18.1369 3.13303 18.1369 2.52494C18.1369 1.83683 18.411 1.26875 18.9591 0.82068C19.5111 0.368612 20.2273 0.142578 21.1074 0.142578C21.7075 0.142578 22.2416 0.258596 22.7096 0.490631C23.1817 0.722666 23.5458 1.04271 23.8018 1.45078C24.0618 1.85884 24.1919 2.3049 24.1919 2.78898H23.0337C23.0337 2.2609 22.8657 1.84684 22.5296 1.54679C22.1936 1.24274 21.7195 1.09072 21.1074 1.09072C20.5393 1.09072 20.0952 1.21674 19.7752 1.46878C19.4591 1.71682 19.3011 2.06287 19.3011 2.50693C19.3011 2.86299 19.4511 3.16503 19.7512 3.41307C20.0552 3.65711 20.5693 3.88114 21.2934 4.08517C22.0215 4.2892 22.5896 4.51524 22.9977 4.76328C23.4097 5.00731 23.7138 5.29336 23.9098 5.6214C24.1098 5.94945 24.2099 6.33551 24.2099 6.77958C24.2099 7.48769 23.9338 8.05577 23.3817 8.48384C22.8296 8.9079 22.0915 9.11993 21.1674 9.11993C20.5673 9.11993 20.0072 9.00592 19.4871 8.77788C18.9671 8.54585 18.565 8.2298 18.281 7.82974C18.0009 7.42968 17.8609 6.97561 17.8609 6.46753H19.0191C19.0191 6.99561 19.2131 7.41368 19.6012 7.72172C19.9932 8.02577 20.5153 8.17779 21.1674 8.17779C21.7755 8.17779 22.2416 8.05377 22.5656 7.80573C22.8897 7.5577 23.0517 7.21965 23.0517 6.79158C23.0517 6.36352 22.9017 6.03347 22.6016 5.80143C22.3016 5.5654 21.7575 5.33336 20.9694 5.10533Z" fill="white"/>
<path d="M27.0243 0.934698V2.50693H28.2365V3.36506H27.0243V7.39167C27.0243 7.65171 27.0783 7.84774 27.1863 7.97976C27.2943 8.10778 27.4783 8.17179 27.7384 8.17179C27.8664 8.17179 28.0424 8.14779 28.2665 8.09978V8.99991C27.9744 9.07993 27.6904 9.11993 27.4143 9.11993C26.9183 9.11993 26.5442 8.96991 26.2922 8.66986C26.0401 8.36982 25.9141 7.94375 25.9141 7.39167V3.36506H24.7319V2.50693H25.9141V0.934698H27.0243Z" fill="white"/>
<path d="M29.1246 5.69342C29.1246 5.05732 29.2486 4.48523 29.4967 3.97716C29.7487 3.46908 30.0967 3.07702 30.5408 2.80098C30.9889 2.52494 31.499 2.38692 32.071 2.38692C32.9552 2.38692 33.6693 2.69296 34.2134 3.30506C34.7614 3.91715 35.0355 4.73127 35.0355 5.74742V5.82544C35.0355 6.45753 34.9135 7.02562 34.6694 7.52969C34.4294 8.02977 34.0833 8.41983 33.6313 8.69987C33.1832 8.97991 32.6671 9.11993 32.083 9.11993C31.2029 9.11993 30.4888 8.81389 29.9407 8.20179C29.3966 7.5897 29.1246 6.77958 29.1246 5.77143V5.69342ZM30.2408 5.82544C30.2408 6.54554 30.4068 7.12363 30.7388 7.5597C31.0749 7.99576 31.523 8.2138 32.083 8.2138C32.6471 8.2138 33.0952 7.99376 33.4272 7.5537C33.7593 7.10963 33.9253 6.48954 33.9253 5.69342C33.9253 4.98131 33.7553 4.40522 33.4152 3.96515C33.0792 3.52109 32.6311 3.29905 32.071 3.29905C31.523 3.29905 31.0809 3.51709 30.7448 3.95315C30.4088 4.38922 30.2408 5.01331 30.2408 5.82544Z" fill="white"/>
<path d="M39.5662 3.50309C39.3981 3.47508 39.2161 3.46108 39.0201 3.46108C38.292 3.46108 37.7979 3.77113 37.5379 4.39122V8.99991H36.4277V2.50693H37.5079L37.5259 3.25705C37.8899 2.67696 38.406 2.38692 39.0741 2.38692C39.2901 2.38692 39.4542 2.41492 39.5662 2.47093V3.50309Z" fill="white"/>
<path d="M42.8247 7.37367L44.3369 2.50693H45.5251L42.9147 10.0021C42.5106 11.0822 41.8685 11.6223 40.9884 11.6223L40.7784 11.6043L40.3643 11.5263V10.6262L40.6643 10.6502C41.0404 10.6502 41.3324 10.5742 41.5405 10.4221C41.7525 10.2701 41.9265 9.99206 42.0625 9.588L42.3086 8.9279L39.9922 2.50693H41.2044L42.8247 7.37367Z" fill="white"/>
<path d="M6.44118 20.6934C6.44118 20.0573 6.56519 19.4852 6.81323 18.9772C7.06527 18.4691 7.41332 18.077 7.85739 17.801C8.30546 17.5249 8.81553 17.3869 9.38762 17.3869C10.2718 17.3869 10.9859 17.693 11.5299 18.3051C12.078 18.9171 12.3521 19.7313 12.3521 20.7474V20.8254C12.3521 21.4575 12.23 22.0256 11.986 22.5297C11.746 23.0298 11.3999 23.4198 10.9479 23.6999C10.4998 23.9799 9.98371 24.1199 9.39962 24.1199C8.51949 24.1199 7.80538 23.8139 7.2573 23.2018C6.71322 22.5897 6.44118 21.7796 6.44118 20.7714V20.6934ZM7.55734 20.8254C7.55734 21.5455 7.72337 22.1236 8.05542 22.5597C8.39147 22.9958 8.83954 23.2138 9.39962 23.2138C9.96371 23.2138 10.4118 22.9938 10.7438 22.5537C11.0759 22.1096 11.2419 21.4895 11.2419 20.6934C11.2419 19.9813 11.0719 19.4052 10.7318 18.9652C10.3958 18.5211 9.94771 18.2991 9.38762 18.2991C8.83954 18.2991 8.39747 18.5171 8.06142 18.9532C7.72537 19.3892 7.55734 20.0133 7.55734 20.8254Z" fill="white"/>
<path d="M14.7944 17.5069L14.8304 18.3231C15.3265 17.699 15.9746 17.3869 16.7747 17.3869C18.1469 17.3869 18.839 18.161 18.851 19.7093V23.9999H17.7409V19.7033C17.7369 19.2352 17.6289 18.8891 17.4168 18.6651C17.2088 18.4411 16.8828 18.3291 16.4387 18.3291C16.0786 18.3291 15.7626 18.4251 15.4905 18.6171C15.2185 18.8091 15.0065 19.0612 14.8544 19.3732V23.9999H13.7443V17.5069H14.7944Z" fill="white"/>
<path d="M21.7315 23.9999H20.6213V14.7825H21.7315V23.9999Z" fill="white"/>
<path d="M24.7199 23.9999H23.6098V17.5069H24.7199V23.9999ZM23.5198 15.7847C23.5198 15.6046 23.5738 15.4526 23.6818 15.3286C23.7938 15.2046 23.9578 15.1426 24.1739 15.1426C24.3899 15.1426 24.5539 15.2046 24.6659 15.3286C24.7779 15.4526 24.834 15.6046 24.834 15.7847C24.834 15.9647 24.7779 16.1147 24.6659 16.2347C24.5539 16.3548 24.3899 16.4148 24.1739 16.4148C23.9578 16.4148 23.7938 16.3548 23.6818 16.2347C23.5738 16.1147 23.5198 15.9647 23.5198 15.7847Z" fill="white"/>
<path d="M27.5524 17.5069L27.5884 18.3231C28.0844 17.699 28.7325 17.3869 29.5327 17.3869C30.9049 17.3869 31.597 18.161 31.609 19.7093V23.9999H30.4988V19.7033C30.4948 19.2352 30.3868 18.8891 30.1748 18.6651C29.9667 18.4411 29.6407 18.3291 29.1966 18.3291C28.8366 18.3291 28.5205 18.4251 28.2485 18.6171C27.9764 18.8091 27.7644 19.0612 27.6124 19.3732V23.9999H26.5022V17.5069H27.5524Z" fill="white"/>
<path d="M35.9776 24.1199C35.0975 24.1199 34.3814 23.8319 33.8293 23.2558C33.2772 22.6757 33.0012 21.9016 33.0012 20.9335V20.7294C33.0012 20.0853 33.1232 19.5112 33.3672 19.0072C33.6153 18.4991 33.9593 18.103 34.3994 17.819C34.8435 17.5309 35.3235 17.3869 35.8396 17.3869C36.6837 17.3869 37.3398 17.665 37.8079 18.221C38.276 18.7771 38.51 19.5732 38.51 20.6094V21.0715H34.1113C34.1273 21.7116 34.3134 22.2296 34.6694 22.6257C35.0295 23.0178 35.4856 23.2138 36.0376 23.2138C36.4297 23.2138 36.7617 23.1338 37.0338 22.9738C37.3058 22.8137 37.5439 22.6017 37.7479 22.3377L38.426 22.8657C37.8819 23.7019 37.0658 24.1199 35.9776 24.1199ZM35.8396 18.2991C35.3915 18.2991 35.0155 18.4631 34.7114 18.7911C34.4074 19.1152 34.2194 19.5712 34.1474 20.1593H37.3998V20.0753C37.3678 19.5112 37.2158 19.0752 36.9438 18.7671C36.6717 18.4551 36.3037 18.2991 35.8396 18.2991Z" fill="white"/>
<path fill-rule="evenodd" clip-rule="evenodd" d="M1.34041 5.5794H3.39872C4.38687 5.5794 5.14498 5.35136 5.67306 4.8953C6.20514 4.43523 6.47118 3.78113 6.47118 2.933C6.47118 2.12888 6.19914 1.48278 5.65506 0.994707C5.11498 0.506633 4.36686 0.262596 3.41072 0.262596H0.188232V8.99991H1.34041V5.5794ZM39.5662 3.50309C39.5552 3.50126 39.5442 3.49949 39.5331 3.49778C39.3743 3.47331 39.2033 3.46108 39.0201 3.46108C38.9435 3.46108 38.8695 3.46451 38.7981 3.47137C38.5688 3.4934 38.3663 3.5508 38.1904 3.64353C38.1816 3.64817 38.1729 3.65287 38.1642 3.65769C37.8871 3.8117 37.6784 4.05622 37.5379 4.39122V8.99991H36.4277V2.50693H37.5079L37.5259 3.25705C37.5683 3.1894 37.6129 3.12568 37.6595 3.06591C37.8358 2.83971 38.0418 2.67003 38.2774 2.55686C38.5133 2.44357 38.7788 2.38692 39.0741 2.38692C39.0941 2.38692 39.1136 2.38716 39.1326 2.38763C39.32 2.39233 39.4645 2.42009 39.5662 2.47093V3.50309ZM40.3643 10.6262L40.6643 10.6502C40.7864 10.6502 40.8995 10.6422 41.0038 10.6262C41.2211 10.5928 41.3999 10.5248 41.5405 10.4221C41.7525 10.2701 41.9265 9.99206 42.0625 9.588L42.3086 8.9279L39.9922 2.50693H41.2044L42.8247 7.37367L44.3369 2.50693H45.5251L42.9147 10.0021C42.5106 11.0822 41.8685 11.6223 40.9884 11.6223L40.7784 11.6043L40.3643 11.5263V10.6262ZM12.9102 6.07147V5.6094C12.9102 5.50495 12.9078 5.40293 12.903 5.30336C12.8821 4.8663 12.8154 4.47625 12.7029 4.13318C12.6851 4.07893 12.6662 4.02586 12.6461 3.97396C12.5351 3.68708 12.3891 3.43611 12.208 3.22104C11.74 2.66496 11.0839 2.38692 10.2397 2.38692C9.72367 2.38692 9.2436 2.53094 8.79953 2.81898C8.35947 3.10302 8.01541 3.49908 7.76738 4.00716C7.52334 4.51124 7.40132 5.08532 7.40132 5.72942V5.93345C7.40132 6.9016 7.67736 7.67571 8.22945 8.2558C8.78153 8.83189 9.49764 9.11993 10.3778 9.11993C11.1727 9.11993 11.8225 8.89683 12.327 8.45061C12.3894 8.39544 12.4496 8.33685 12.5075 8.27486C12.6225 8.1519 12.7287 8.01553 12.8261 7.86574L12.148 7.33766C12.1437 7.34332 12.1393 7.34896 12.1349 7.35457C11.9338 7.61077 11.7001 7.81717 11.4339 7.97376C11.1619 8.13378 10.8298 8.2138 10.4378 8.2138C9.88569 8.2138 9.42963 8.01777 9.06957 7.62571C8.86886 7.40244 8.72218 7.1404 8.62952 6.83959C8.55781 6.60678 8.51847 6.35074 8.51149 6.07147H12.9102ZM9.11158 3.79113C8.95623 3.95669 8.83117 4.15672 8.7364 4.39122C8.64568 4.61568 8.58271 4.87172 8.54749 5.15934H11.8V5.07532C11.7856 4.82133 11.7468 4.5933 11.6838 4.39122C11.6067 4.1445 11.4935 3.93647 11.3439 3.76712C11.0719 3.45508 10.7038 3.29905 10.2397 3.29905C9.79168 3.29905 9.41562 3.46308 9.11158 3.79113ZM14.5964 2.50693H13.4142V3.36506H14.5964V7.39167C14.5964 7.94376 14.7224 8.36982 14.9745 8.66986C15.2265 8.96991 15.6006 9.11993 16.0966 9.11993C16.3727 9.11993 16.6567 9.07993 16.9488 8.99991V8.09978C16.7247 8.14779 16.5487 8.17179 16.4207 8.17179C16.3318 8.17179 16.2518 8.16431 16.1806 8.14935C16.0437 8.12055 15.9397 8.06402 15.8686 7.97976C15.7606 7.84774 15.7066 7.65171 15.7066 7.39167V3.36506H16.9188V2.50693H15.7066V0.934698H14.5964V2.50693ZM24.7319 2.50693V3.36506H25.9141V7.39167C25.9141 7.94376 26.0401 8.36982 26.2922 8.66986C26.5442 8.96991 26.9183 9.11993 27.4143 9.11993C27.6904 9.11993 27.9744 9.07993 28.2665 8.99991V8.09978C28.0424 8.14779 27.8664 8.17179 27.7384 8.17179C27.6495 8.17179 27.5695 8.16431 27.4984 8.14935C27.3614 8.12055 27.2574 8.06402 27.1863 7.97976C27.0783 7.84774 27.0243 7.65171 27.0243 7.39167V3.36506H28.2365V2.50693H27.0243V0.934698H25.9141V2.50693H24.7319ZM23.9638 1.74526C23.917 1.64499 23.863 1.54683 23.8018 1.45078C23.5458 1.04271 23.1817 0.722666 22.7096 0.490631C22.2416 0.258596 21.7075 0.142578 21.1074 0.142578C20.2273 0.142578 19.5111 0.368612 18.9591 0.82068C18.411 1.26875 18.1369 1.83683 18.1369 2.52494C18.1369 3.13303 18.361 3.64511 18.809 4.06117C19.2611 4.47323 19.9812 4.82128 20.9694 5.10533C21.7575 5.33336 22.3016 5.5654 22.6016 5.80143C22.9017 6.03347 23.0517 6.36352 23.0517 6.79158C23.0517 7.21965 22.8897 7.5577 22.5656 7.80573C22.2416 8.05377 21.7755 8.17779 21.1674 8.17779C20.5153 8.17779 19.9932 8.02577 19.6012 7.72172C19.2131 7.41368 19.0191 6.99561 19.0191 6.46753H17.8609C17.8609 6.73899 17.9009 6.99503 17.9808 7.23565C18.0505 7.44539 18.1505 7.64342 18.281 7.82974C18.565 8.2298 18.9671 8.54585 19.4871 8.77788C20.0072 9.00591 20.5673 9.11993 21.1674 9.11993C22.0915 9.11993 22.8296 8.9079 23.3817 8.48384C23.9338 8.05577 24.2099 7.48769 24.2099 6.77958C24.2099 6.33551 24.1098 5.94945 23.9098 5.6214C23.7138 5.29335 23.4097 5.00731 22.9977 4.76328C22.5896 4.51524 22.0215 4.2892 21.2934 4.08517C20.5693 3.88114 20.0552 3.65711 19.7512 3.41307C19.4511 3.16503 19.3011 2.86299 19.3011 2.50693C19.3011 2.06287 19.4591 1.71682 19.7752 1.46878C20.0952 1.21674 20.5393 1.09072 21.1074 1.09072C21.7195 1.09072 22.1936 1.24274 22.5296 1.54679C22.8657 1.84684 23.0337 2.2609 23.0337 2.78898H24.1919C24.1919 2.69348 24.1868 2.59947 24.1767 2.50693C24.1584 2.3401 24.1237 2.17808 24.0726 2.02086C24.0422 1.92729 24.0059 1.83543 23.9638 1.74526ZM4.82693 4.20519C4.49888 4.49323 4.02681 4.63726 3.41072 4.63726H1.34041V1.21074H3.47673C4.04881 1.22274 4.49888 1.38477 4.82693 1.69681C5.15498 2.00886 5.31901 2.42492 5.31901 2.945C5.31901 3.49308 5.15498 3.91315 4.82693 4.20519ZM30.5408 2.80098C30.9889 2.52494 31.499 2.38692 32.071 2.38692C32.9552 2.38692 33.6693 2.69296 34.2134 3.30506C34.7614 3.91715 35.0355 4.73127 35.0355 5.74742V5.82544C35.0355 6.45753 34.9135 7.02562 34.6694 7.52969C34.4294 8.02977 34.0833 8.41983 33.6313 8.69987C33.1832 8.97991 32.6671 9.11993 32.083 9.11993C31.2029 9.11993 30.4888 8.81389 29.9407 8.20179C29.3966 7.5897 29.1246 6.77958 29.1246 5.77143V5.69342C29.1246 5.05732 29.2486 4.48523 29.4967 3.97716C29.7487 3.46908 30.0967 3.07702 30.5408 2.80098ZM30.7388 7.5597C30.4068 7.12363 30.2408 6.54554 30.2408 5.82544C30.2408 5.01331 30.4088 4.38922 30.7448 3.95315C31.0809 3.51709 31.523 3.29905 32.071 3.29905C32.6311 3.29905 33.0792 3.52109 33.4152 3.96515C33.7553 4.40522 33.9253 4.98131 33.9253 5.69342C33.9253 6.48954 33.7593 7.10963 33.4272 7.5537C33.0952 7.99376 32.6471 8.2138 32.083 8.2138C31.523 8.2138 31.0749 7.99576 30.7388 7.5597ZM11.5299 18.3051C10.9859 17.693 10.2718 17.3869 9.38762 17.3869C8.81553 17.3869 8.30546 17.5249 7.85739 17.801C7.41332 18.077 7.06527 18.4691 6.81323 18.9772C6.56519 19.4852 6.44118 20.0573 6.44118 20.6934V20.7714C6.44118 21.7796 6.71322 22.5897 7.2573 23.2018C7.80538 23.8139 8.51949 24.1199 9.39962 24.1199C9.98371 24.1199 10.4998 23.9799 10.9479 23.6999C11.3999 23.4198 11.746 23.0298 11.986 22.5297C12.23 22.0256 12.3521 21.4575 12.3521 20.8254V20.7474C12.3521 19.7313 12.078 18.9171 11.5299 18.3051ZM15.571 17.6819C15.5175 17.7117 15.465 17.7438 15.4137 17.7781C15.2986 17.855 15.1891 17.9432 15.0851 18.0428C14.9962 18.1279 14.9113 18.2213 14.8304 18.3231L14.7944 17.5069H13.7443V23.9999H14.8544V19.3732C14.978 19.1196 15.1412 18.9056 15.344 18.7313C15.3908 18.6911 15.4396 18.6531 15.4905 18.6171C15.5852 18.5503 15.6851 18.4951 15.7904 18.4516C15.9878 18.3699 16.2039 18.3291 16.4387 18.3291C16.8828 18.3291 17.2088 18.4411 17.4168 18.6651C17.6289 18.8891 17.7369 19.2352 17.7409 19.7033V23.9999H18.851V19.7093C18.839 18.161 18.1469 17.3869 16.7747 17.3869C16.3256 17.3869 15.9244 17.4852 15.571 17.6819ZM8.05542 22.5597C7.72337 22.1236 7.55734 21.5455 7.55734 20.8254C7.55734 20.0133 7.72537 19.3892 8.06142 18.9532C8.39747 18.5171 8.83954 18.2991 9.38762 18.2991C9.94771 18.2991 10.3958 18.5211 10.7318 18.9652C11.0719 19.4052 11.2419 19.9813 11.2419 20.6934C11.2419 21.4895 11.0759 22.1096 10.7438 22.5537C10.4118 22.9938 9.96371 23.2138 9.39962 23.2138C8.83954 23.2138 8.39147 22.9958 8.05542 22.5597ZM24.2867 15.7843C24.2867 15.7841 24.2867 15.7844 24.2867 15.7843C24.2861 15.7865 24.2852 15.7896 24.2841 15.7928C24.2814 15.8001 24.2778 15.808 24.2733 15.8157C24.2708 15.82 24.2683 15.8237 24.266 15.8269C24.2642 15.8293 24.2625 15.8314 24.261 15.8331L24.1934 15.7742L24.2527 15.7209C24.2644 15.7339 24.2758 15.7523 24.283 15.772C24.2848 15.777 24.2859 15.7811 24.2867 15.7843ZM24.184 15.766L24.1117 15.7031C24.1243 15.6906 24.1382 15.6795 24.1526 15.6701C24.1602 15.6652 24.1673 15.6611 24.1739 15.6577C24.1804 15.6611 24.1875 15.6652 24.1951 15.6701C24.2123 15.6813 24.2287 15.695 24.2431 15.7105C24.2431 15.7104 24.2432 15.7105 24.2431 15.7105L24.184 15.766ZM24.1843 15.7825L24.1054 15.8534C24.1168 15.8647 24.1294 15.8751 24.1429 15.8842C24.1542 15.8918 24.1647 15.8976 24.1739 15.9019C24.183 15.8976 24.1935 15.8918 24.2048 15.8842C24.2212 15.8731 24.2364 15.8601 24.2494 15.846C24.2502 15.8452 24.251 15.8443 24.2518 15.8435L24.1843 15.7825ZM24.0983 15.846L24.1752 15.7742L24.1046 15.7105C24.1045 15.7105 24.1046 15.7104 24.1046 15.7105C24.0934 15.7225 24.0806 15.7414 24.0723 15.7636C24.0688 15.7731 24.0671 15.7803 24.0664 15.7844C24.0664 15.7845 24.0663 15.7844 24.0664 15.7844C24.0671 15.7879 24.0685 15.7938 24.0712 15.8012C24.0743 15.8096 24.0784 15.8182 24.0833 15.8263C24.0882 15.8342 24.0928 15.84 24.0959 15.8435C24.0967 15.8443 24.0975 15.8452 24.0983 15.846ZM23.6818 15.3286C23.5738 15.4526 23.5198 15.6046 23.5198 15.7847C23.5198 15.9647 23.5738 16.1147 23.6818 16.2347C23.7938 16.3548 23.9578 16.4148 24.1739 16.4148C24.3899 16.4148 24.5539 16.3548 24.6659 16.2347C24.7779 16.1147 24.834 15.9647 24.834 15.7847C24.834 15.6046 24.7779 15.4526 24.6659 15.3286C24.5539 15.2046 24.3899 15.1426 24.1739 15.1426C23.9578 15.1426 23.7938 15.2046 23.6818 15.3286ZM28.3289 17.6819C28.2754 17.7117 28.223 17.7438 28.1716 17.7781C28.0566 17.855 27.9471 17.9432 27.8431 18.0428C27.7541 18.1279 27.6692 18.2213 27.5884 18.3231L27.5524 17.5069H26.5022V23.9999H27.6124V19.3732C27.7359 19.1196 27.8991 18.9056 28.102 18.7313C28.1487 18.6911 28.1975 18.6531 28.2485 18.6171C28.3431 18.5503 28.443 18.4951 28.5483 18.4516C28.7457 18.3699 28.9618 18.3291 29.1966 18.3291C29.6407 18.3291 29.9667 18.4411 30.1748 18.6651C30.3868 18.8891 30.4948 19.2352 30.4988 19.7033V23.9999H31.609V19.7093C31.597 18.161 30.9049 17.3869 29.5327 17.3869C29.0835 17.3869 28.6823 17.4852 28.3289 17.6819ZM38.51 21.0715V20.6094C38.51 20.5049 38.5076 20.4029 38.5029 20.3034C38.4604 19.4152 38.2288 18.7211 37.8079 18.221C37.3398 17.665 36.6837 17.3869 35.8396 17.3869C35.3235 17.3869 34.8435 17.5309 34.3994 17.819C33.9593 18.103 33.6153 18.4991 33.3672 19.0072C33.1232 19.5112 33.0012 20.0853 33.0012 20.7294V20.9335C33.0012 21.9016 33.2772 22.6757 33.8293 23.2558C34.3814 23.8319 35.0975 24.1199 35.9776 24.1199C36.7726 24.1199 37.4223 23.8968 37.9269 23.4506L37.8152 23.3636C38.0119 23.2039 38.1899 23.0206 38.3492 22.8157L38.426 22.8657L38.1074 23.2749C38.2223 23.1519 38.3285 23.0155 38.426 22.8657L38.3539 22.8096C38.3523 22.8117 38.3508 22.8137 38.3492 22.8157L37.7822 22.4468C37.6463 22.6556 37.4892 22.8293 37.3055 22.9667L37.2759 22.9437L37.7345 22.3548C37.5335 22.6109 37.2999 22.8172 37.0338 22.9738C36.7617 23.1338 36.4297 23.2138 36.0376 23.2138C35.4856 23.2138 35.0295 23.0178 34.6694 22.6257C34.4687 22.4024 34.322 22.1404 34.2294 21.8396H34.1113V21.0715M34.3845 22.7249C34.4116 22.7533 34.4393 22.7807 34.4676 22.8071C34.4683 22.8078 34.469 22.8085 34.4697 22.8091C34.849 23.1631 35.3327 23.3518 35.9776 23.3518C35.9978 23.3518 36.0178 23.3516 36.0376 23.3513C36.4631 23.344 36.8138 23.2579 37.1057 23.096C37.1756 23.0573 37.2421 23.0141 37.3055 22.9667L37.8152 23.3636C37.6919 23.4638 37.5612 23.5546 37.4232 23.6358C37.0077 23.8803 36.5338 23.9819 36.0376 23.9819C36.0176 23.9819 35.9976 23.9817 35.9776 23.9813C35.2445 23.9669 34.6017 23.6875 34.1037 23.1453L34.0982 23.1393C34.0756 23.1141 34.0535 23.0886 34.032 23.0629L34.3857 22.7263C34.3853 22.7258 34.3849 22.7254 34.3845 22.7249ZM33.7693 20.9275V20.9335C33.7693 20.9832 33.7701 21.032 33.7718 21.08C33.7977 21.8162 34.0201 22.3415 34.3845 22.7249C34.3846 22.7251 34.3843 22.7247 34.3845 22.7249L34.032 23.0629C33.5761 22.5172 33.3622 21.8394 33.3435 21.0907L33.3394 20.9275H33.7693ZM33.7918 20.3034C33.7769 20.439 33.7693 20.5809 33.7693 20.7294V20.9275H37.7419V20.6094C37.7419 20.503 37.7391 20.4011 37.7338 20.3034M33.7918 20.3034C33.7986 20.2405 33.8071 20.1791 33.817 20.1189C33.8644 19.8317 33.9462 19.5741 34.0583 19.3425C34.1958 19.0613 34.3651 18.8354 34.5653 18.6557L34.7113 18.791L34.5662 18.6549C34.6447 18.5844 34.728 18.5211 34.8159 18.4643L34.8174 18.4634C35.1404 18.2539 35.4759 18.155 35.8396 18.155C36.4288 18.155 36.8309 18.3208 37.1224 18.6094L36.9438 18.7671C36.6717 18.4551 36.3037 18.2991 35.8396 18.2991C35.3915 18.2991 35.0153 18.4629 34.7113 18.791C34.5559 18.9565 34.431 19.1567 34.3363 19.3912H34.1474V20.1593L34.9098 20.2527C34.9137 20.2207 34.918 20.1896 34.9226 20.1593H37.3998V19.3912H37.2836C37.2066 19.1445 37.0933 18.9365 36.9438 18.7671L37.1235 18.6105C37.1231 18.6101 37.1227 18.6098 37.1224 18.6094L37.5195 18.2587C37.5199 18.2592 37.5204 18.2596 37.5208 18.2601C37.5214 18.2609 37.5221 18.2616 37.5228 18.2624M34.1497 18.2673C34.1491 18.2678 34.1486 18.2684 34.1481 18.269L34.5653 18.6557C34.5656 18.6554 34.5659 18.6551 34.5662 18.6549L34.1513 18.2656C34.1507 18.2661 34.1502 18.2667 34.1497 18.2673Z" fill="white"/>
<path fill-rule="evenodd" clip-rule="evenodd" d="M9.10002 23.4576C8.93833 22.8092 8.45617 22.0478 8.08059 21.2254C8.40252 21.9303 8.72444 22.6352 9.10002 23.4576ZM10.0071 23.3835C9.47124 22.5045 9.14859 21.5037 8.82594 20.5029C8.5584 20.2113 8.34524 20.3332 8.13207 20.4551C7.7594 20.8163 7.38599 20.8817 7.81377 21.2297C8.34959 22.1087 8.72516 22.9311 8.99416 23.8145C9.10074 23.7535 9.31391 23.6317 9.42049 23.5707C9.63365 23.4488 9.68658 23.2704 10.0071 23.3835ZM7.70502 20.4029C7.54333 19.7546 7.06117 18.9931 6.68559 18.1707C7.00752 18.8756 7.32944 19.5805 7.70502 20.4029ZM6.25636 17.2308C6.14833 16.6999 5.61252 15.8209 5.29059 15.116C5.61252 15.8209 5.88078 16.4083 6.31002 17.3483C6.31002 17.3483 6.31002 17.3483 6.25636 17.2308ZM7.1634 17.1566C6.68124 16.3952 6.35859 15.3943 5.98229 14.276C5.7684 14.102 5.55523 14.2238 5.34207 14.3457C4.96939 14.707 4.59599 14.7723 5.02377 15.1204C5.50593 15.8818 5.93516 16.8218 6.20416 17.7051C6.31074 17.6442 6.52391 17.5223 6.63049 17.4613C6.79 17.222 6.89658 17.161 7.1634 17.1566ZM4.86136 14.1761C4.75333 13.6452 4.21751 12.7662 3.89559 12.0613C4.21751 12.7662 4.48578 13.3537 4.91502 14.2936L4.86136 14.1761ZM5.7684 14.102C5.28624 13.3405 4.96359 12.3396 4.58729 11.2213C4.3734 11.0473 4.16023 11.1691 3.94707 11.291C3.57439 11.6523 3.14734 11.6001 3.62877 12.0657C4.11093 12.8272 4.54016 13.7671 4.80916 14.6504C4.91574 14.5895 5.12891 14.4676 5.18183 14.2892C5.395 14.1673 5.50158 14.1063 5.7684 14.102ZM5.56321 17.4789C5.13616 17.4268 4.81569 17.3137 4.38863 17.2615C4.81569 17.3137 5.08251 17.3093 5.56321 17.4789C4.92227 17.2527 4.44156 17.0831 3.85427 16.9744C4.33498 17.144 4.76203 17.1962 5.40298 17.4224C4.70838 17.0787 4.12109 16.97 3.58673 16.6829C4.06744 16.8525 4.54814 17.0221 5.24274 17.3658C4.65473 16.9612 4.01378 16.735 3.37284 16.5088C4.01378 16.735 4.70838 17.0787 5.56321 17.4789C5.72345 17.5355 5.72345 17.5355 5.56321 17.4789ZM5.35005 17.6008C5.35005 17.6008 5.24347 17.6617 5.18981 17.5443C4.38936 17.5574 3.69549 17.5097 3.05527 17.5794C3.64256 17.6881 4.28278 17.6184 4.923 17.5486C4.28278 17.6184 3.74914 17.6272 3.26916 17.7534C3.80279 17.7446 4.44301 17.6749 5.08323 17.6052C4.54959 17.614 4.06961 17.7403 3.58963 17.8665C4.22985 17.7968 4.70983 17.6705 5.24347 17.6617C4.87007 17.7271 4.49667 17.7924 4.12327 17.8577C4.49667 17.7924 4.87007 17.7271 5.24347 17.6617C5.35005 17.6008 5.35005 17.6008 5.35005 17.6008ZM5.67197 18.3057C5.45881 18.4276 5.2993 18.667 4.97955 18.8498C5.19272 18.7279 5.35223 18.4885 5.67197 18.3057C5.35223 18.4885 4.97955 18.8498 4.6598 19.0326C4.97955 18.8498 5.24564 18.5495 5.56539 18.3667C5.13906 18.6104 4.71273 18.8542 4.34006 19.2154C4.60615 18.9151 5.03248 18.6714 5.45881 18.4276C5.03248 18.6714 4.60615 18.9151 4.17982 19.1589C4.60615 18.9151 5.08541 18.4929 5.61832 18.1882C5.7249 18.1273 5.77856 18.2448 5.67197 18.3057ZM5.72563 18.4232C5.61904 18.4842 5.61904 18.4842 5.61904 18.4842C5.19344 19.0238 4.87442 19.5026 4.66198 19.9204C4.87442 19.5026 5.19344 19.0238 5.45953 18.7235C5.24709 19.1413 4.981 19.4416 4.76856 19.8594C4.981 19.4416 5.30002 18.9629 5.51246 18.5451C5.30002 18.9629 5.19417 19.3198 5.03466 19.5591C5.19417 19.3198 5.40661 18.902 5.61904 18.4842C5.51319 18.841 5.35368 19.0804 5.30075 19.2588C5.46026 19.0194 5.45953 18.7235 5.61904 18.4842L5.72563 18.4232ZM5.99172 18.1229C6.0983 18.062 6.0983 18.062 6.20488 18.001C6.25854 18.1185 6.25854 18.1185 6.41877 18.1751C6.95459 19.054 7.33016 19.8764 7.59916 20.7598C7.70574 20.6989 7.91891 20.577 8.02549 20.516C8.185 20.2767 8.29158 20.2157 8.5584 20.2113C8.07624 19.4499 7.75359 18.449 7.37729 17.3307C7.1634 17.1566 6.95023 17.2785 6.73707 17.4004C6.47098 17.7007 6.20416 17.7051 6.15123 17.8835C6.09758 17.766 5.93734 17.7095 5.88369 17.592C5.83003 17.4745 5.6698 17.418 5.40225 17.1265C4.70765 16.7828 3.586 16.3869 2.99871 16.2782C3.15967 16.6307 4.01451 17.0309 4.70911 17.3746C4.01523 17.3268 3.10819 17.401 2.57528 17.7057C3.10965 17.9928 5.08396 17.9011 5.67052 17.7139C5.67052 17.7139 5.7771 17.653 5.83076 17.7704C5.99099 17.827 6.15123 17.8835 6.20488 18.001C6.0983 18.062 5.99172 18.1229 5.83148 18.0664C5.83148 18.0664 5.7249 18.1273 5.51174 18.2492C4.92517 18.4364 4.23275 18.9805 3.86007 19.3417C4.18055 19.4548 4.82004 19.0892 5.2993 18.667C4.98028 19.1457 4.60833 19.8029 4.39589 20.2207C4.87587 20.0944 5.72635 18.7191 5.77856 18.2448C5.88514 18.1838 5.88514 18.1838 5.99172 18.1229Z" fill="white"/>
</svg>
