<?xml-stylesheet type="text/css" href="../../pages/main/style.css"?>
<?xml-stylesheet type="text/css" href="../../pages/donate/style.css"?>
<svg width="5" height="10" viewBox="0 0 5 10" fill="none" xmlns="http://www.w3.org/2000/svg">
<path d="M4.03896 3.12987C3.83117 2.93506 3.62338 2.79221 3.42857 2.68831C3.23377 2.5974 3.01299 2.54545 2.76623 2.54545C2.48052 2.54545 2.27273 2.61039 2.12987 2.72727C1.98701 2.84416 1.90909 3.03896 1.90909 3.2987C1.90909 3.48052 1.98701 3.64935 2.14286 3.76623C2.2987 3.8961 2.48052 4.01299 2.71429 4.12987C2.94805 4.24675 3.19481 4.36364 3.45455 4.49351C3.71429 4.62338 3.96104 4.76623 4.19481 4.94805C4.42857 5.12987 4.61039 5.33766 4.76623 5.5974C4.92208 5.85714 5 6.16883 5 6.53247C5 7.09091 4.84416 7.57143 4.54545 7.97403C4.24675 8.37662 3.77922 8.63636 3.18182 8.77922V10H2.05195V8.83117C1.71429 8.79221 1.35065 8.7013 0.974026 8.54545C0.597403 8.38961 0.272727 8.19481 0 7.94805L0.753247 6.79221C1.05195 7.01299 1.33766 7.18182 1.5974 7.2987C1.87013 7.41558 2.14286 7.46753 2.41558 7.46753C2.74026 7.46753 2.98701 7.4026 3.12987 7.27273C3.28571 7.14286 3.36364 6.93506 3.36364 6.66234C3.36364 6.45455 3.28571 6.28571 3.12987 6.14286C2.97403 6 2.79221 5.87013 2.55844 5.74026C2.32468 5.61039 2.07792 5.48052 1.81818 5.35065C1.55844 5.22078 1.31169 5.06493 1.07792 4.88312C0.844156 4.7013 0.662338 4.49351 0.506493 4.24675C0.350649 4 0.272727 3.71429 0.272727 3.36364C0.272727 2.79221 0.428571 2.31169 0.74026 1.93506C1.05195 1.55844 1.49351 1.31169 2.03896 1.20779V0H3.16883V1.18182C3.54545 1.23377 3.87013 1.35065 4.15584 1.51948C4.44156 1.68831 4.68831 1.8961 4.92208 2.14286L4.03896 3.12987Z" fill="#333B41"/>
</svg>
